<svg
  xmlns="http://www.w3.org/2000/svg"
  width="500"
  height="500"
  viewBox="0 0 500 500"
  fill="currentColor"
  stroke="currentColor"
  stroke-width="2"
  stroke-linecap="round"
  stroke-linejoin="round"
>
  <path d="M 291.02,148.44 L 290.53,148.93 L 287.6,148.93 L 287.11,149.41 L 284.67,149.41 L 284.18,149.9 L 282.71,149.9 L 282.23,150.39 L 280.76,150.39 L 280.27,150.88 L 279.3,150.88 L 278.81,151.37 L 277.83,151.37 L 277.34,151.86 L 276.37,151.86 L 275.88,152.34 L 274.9,152.34 L 274.41,152.83 L 273.93,152.83 L 273.44,153.32 L 272.46,153.32 L 271.97,153.81 L 271.48,153.81 L 271.0,154.3 L 270.51,154.3 L 270.02,154.79 L 269.53,154.79 L 269.04,155.27 L 268.55,155.27 L 268.07,155.76 L 267.58,155.76 L 266.6,156.74 L 266.11,156.74 L 265.62,157.23 L 265.14,157.23 L 264.16,158.2 L 263.67,158.2 L 262.7,159.18 L 262.21,159.18 L 261.23,160.16 L 260.74,160.16 L 259.28,161.62 L 258.79,161.62 L 256.84,163.57 L 256.35,163.57 L 249.02,170.9 L 249.02,171.39 L 247.07,173.34 L 247.07,173.83 L 245.12,175.78 L 245.12,176.27 L 243.65,177.73 L 243.65,178.22 L 242.68,179.2 L 242.68,179.69 L 241.7,180.66 L 241.7,181.15 L 240.72,182.13 L 240.72,182.62 L 239.75,183.59 L 239.75,184.08 L 239.26,184.57 L 239.26,185.06 L 238.28,186.04 L 238.28,186.52 L 237.79,187.01 L 237.79,187.5 L 236.82,188.48 L 236.82,188.96 L 236.33,189.45 L 236.33,189.94 L 235.84,190.43 L 235.84,190.92 L 234.86,191.89 L 234.86,192.38 L 234.38,192.87 L 234.38,193.36 L 233.89,193.85 L 233.89,194.34 L 233.4,194.82 L 233.4,195.31 L 232.91,195.8 L 232.91,196.29 L 232.42,196.78 L 232.42,197.27 L 231.45,198.24 L 231.45,198.73 L 230.96,199.22 L 230.96,199.71 L 230.47,200.2 L 230.47,200.68 L 229.98,201.17 L 229.98,201.66 L 229.49,202.15 L 229.49,202.64 L 229.0,203.12 L 229.0,203.61 L 228.52,204.1 L 228.52,204.59 L 228.03,205.08 L 228.03,205.57 L 227.05,206.54 L 227.05,207.03 L 226.56,207.52 L 226.56,208.01 L 226.07,208.5 L 226.07,208.98 L 225.59,209.47 L 225.59,209.96 L 225.1,210.45 L 225.1,210.94 L 224.61,211.43 L 224.61,211.91 L 224.12,212.4 L 224.12,212.89 L 223.63,213.38 L 223.63,213.87 L 223.14,214.36 L 223.14,215.33 L 222.17,216.31 L 222.17,217.29 L 221.68,217.77 L 221.68,218.26 L 221.19,218.75 L 221.19,219.24 L 220.7,219.73 L 220.7,220.21 L 220.21,220.7 L 220.21,221.19 L 219.73,221.68 L 219.73,222.17 L 219.24,222.66 L 219.24,223.14 L 218.75,223.63 L 218.75,224.12 L 218.26,224.61 L 218.26,225.59 L 217.77,226.07 L 217.77,226.56 L 217.29,227.05 L 217.29,227.54 L 216.8,228.03 L 216.8,228.52 L 216.31,229.0 L 216.31,229.49 L 215.82,229.98 L 215.82,230.47 L 215.33,230.96 L 215.33,231.93 L 214.84,232.42 L 214.84,232.91 L 214.36,233.4 L 214.36,233.89 L 213.87,234.38 L 213.87,234.86 L 212.89,235.84 L 212.89,236.33 L 210.94,238.28 L 210.45,238.28 L 209.96,238.77 L 209.47,238.28 L 208.98,238.28 L 207.03,236.33 L 207.03,235.84 L 206.05,234.86 L 206.05,234.38 L 205.57,233.89 L 205.57,233.4 L 205.08,232.91 L 205.08,232.42 L 204.1,231.45 L 204.1,230.96 L 203.61,230.47 L 203.61,229.98 L 203.12,229.49 L 203.12,229.0 L 202.15,228.03 L 202.15,227.54 L 201.66,227.05 L 201.66,226.56 L 201.17,226.07 L 201.17,225.59 L 200.2,224.61 L 200.2,224.12 L 199.71,223.63 L 199.71,223.14 L 199.22,222.66 L 199.22,222.17 L 198.24,221.19 L 198.24,220.7 L 197.75,220.21 L 197.75,219.73 L 196.78,218.75 L 196.78,218.26 L 196.29,217.77 L 196.29,217.29 L 195.8,216.8 L 195.8,216.31 L 194.82,215.33 L 194.82,214.84 L 194.34,214.36 L 194.34,213.87 L 193.36,212.89 L 193.36,212.4 L 192.87,211.91 L 192.87,211.43 L 191.89,210.45 L 191.89,209.96 L 191.41,209.47 L 191.41,208.98 L 190.43,208.01 L 190.43,207.52 L 189.94,207.03 L 189.94,206.54 L 189.45,206.05 L 189.45,205.57 L 188.96,205.08 L 188.96,204.59 L 187.99,203.61 L 187.99,203.12 L 187.5,202.64 L 187.5,202.15 L 187.01,201.66 L 187.01,201.17 L 186.52,200.68 L 186.52,200.2 L 185.55,199.22 L 185.55,198.73 L 184.08,197.27 L 184.08,196.78 L 183.59,196.29 L 183.11,196.29 L 181.15,194.34 L 180.66,194.34 L 180.18,193.85 L 179.69,193.85 L 179.2,193.36 L 178.71,193.36 L 178.22,192.87 L 176.76,192.87 L 176.27,192.38 L 153.32,192.38 L 152.83,192.87 L 152.34,192.87 L 152.34,195.8 L 152.83,196.29 L 152.83,199.22 L 153.32,199.71 L 153.32,204.1 L 153.81,204.59 L 153.81,221.68 L 154.3,222.17 L 154.3,259.28 L 153.81,259.77 L 153.81,272.95 L 153.32,273.44 L 153.32,280.76 L 152.83,281.25 L 152.83,285.16 L 152.34,285.64 L 152.34,288.57 L 151.86,289.06 L 151.86,291.02 L 151.37,291.5 L 151.37,293.46 L 150.88,293.95 L 150.88,294.92 L 150.39,295.41 L 150.39,296.39 L 149.9,296.88 L 149.9,297.36 L 149.41,297.85 L 149.41,298.34 L 148.93,298.83 L 148.93,299.32 L 148.44,299.8 L 148.44,300.29 L 146.97,301.76 L 146.97,302.25 L 143.07,306.15 L 142.58,306.15 L 142.09,306.64 L 141.6,306.64 L 140.62,307.62 L 140.14,307.62 L 139.65,308.11 L 139.65,310.55 L 140.62,311.52 L 142.09,311.52 L 142.58,312.01 L 170.41,312.01 L 170.9,311.52 L 171.39,312.01 L 172.85,312.01 L 173.34,311.52 L 180.66,311.52 L 181.15,311.04 L 181.64,311.04 L 182.13,310.55 L 182.13,310.06 L 182.62,309.57 L 182.62,309.08 L 182.13,308.59 L 182.13,307.62 L 181.64,307.13 L 181.64,306.15 L 181.15,305.66 L 181.15,304.69 L 180.66,304.2 L 180.66,303.22 L 180.18,302.73 L 180.18,301.27 L 179.69,300.78 L 179.69,299.32 L 179.2,298.83 L 179.2,294.92 L 178.71,294.43 L 178.71,284.67 L 178.22,284.18 L 178.71,283.69 L 178.22,283.2 L 178.71,282.71 L 178.22,282.23 L 178.22,242.68 L 179.2,241.7 L 180.66,241.7 L 182.62,243.65 L 182.62,244.14 L 183.59,245.12 L 183.59,245.61 L 184.08,246.09 L 184.08,246.58 L 184.57,247.07 L 184.57,247.56 L 185.55,248.54 L 185.55,249.02 L 186.04,249.51 L 186.04,250.0 L 187.01,250.98 L 187.01,251.46 L 187.5,251.95 L 187.5,252.44 L 188.48,253.42 L 188.48,253.91 L 188.96,254.39 L 188.96,254.88 L 189.45,255.37 L 189.45,255.86 L 190.43,256.84 L 190.43,257.32 L 190.92,257.81 L 190.92,258.3 L 191.89,259.28 L 191.89,259.77 L 192.38,260.25 L 192.38,260.74 L 193.36,261.72 L 193.36,262.21 L 193.85,262.7 L 193.85,263.18 L 194.82,264.16 L 194.82,264.65 L 195.31,265.14 L 195.31,265.62 L 195.8,266.11 L 195.8,266.6 L 196.78,267.58 L 196.78,268.07 L 197.27,268.55 L 197.27,269.04 L 198.24,270.02 L 198.24,270.51 L 198.73,271.0 L 198.73,271.48 L 199.22,271.97 L 199.22,272.46 L 200.2,273.44 L 200.2,273.93 L 200.68,274.41 L 200.68,274.9 L 201.66,275.88 L 201.66,276.37 L 202.15,276.86 L 202.15,277.34 L 203.12,278.32 L 203.12,278.81 L 203.61,279.3 L 203.61,279.79 L 204.1,280.27 L 204.1,280.76 L 205.08,281.74 L 205.08,282.23 L 205.57,282.71 L 205.57,283.2 L 206.54,284.18 L 206.54,284.67 L 207.03,285.16 L 207.03,285.64 L 208.01,286.62 L 208.01,287.11 L 209.47,288.57 L 210.94,288.57 L 211.43,288.09 L 211.43,287.6 L 211.91,287.11 L 211.91,286.62 L 212.89,285.64 L 212.89,285.16 L 213.38,284.67 L 213.38,284.18 L 213.87,283.69 L 213.87,283.2 L 214.36,282.71 L 214.36,282.23 L 214.84,281.74 L 214.84,281.25 L 215.82,280.27 L 215.82,279.79 L 216.31,279.3 L 216.31,278.81 L 216.8,278.32 L 216.8,277.83 L 217.29,277.34 L 217.29,276.86 L 217.77,276.37 L 217.77,275.88 L 218.26,275.39 L 218.26,274.9 L 218.75,274.41 L 218.75,273.93 L 219.73,272.95 L 219.73,272.46 L 220.21,271.97 L 220.21,271.48 L 220.7,271.0 L 220.7,270.51 L 221.19,270.02 L 221.19,269.53 L 221.68,269.04 L 221.68,268.55 L 222.17,268.07 L 222.17,267.58 L 223.14,266.6 L 223.14,266.11 L 223.63,265.62 L 223.63,265.14 L 224.12,264.65 L 224.12,264.16 L 224.61,263.67 L 224.61,263.18 L 225.1,262.7 L 225.1,262.21 L 225.59,261.72 L 225.59,261.23 L 226.56,260.25 L 226.56,259.77 L 227.05,259.28 L 227.05,258.79 L 227.54,258.3 L 227.54,257.81 L 228.03,257.32 L 228.03,256.84 L 228.52,256.35 L 228.52,255.86 L 229.0,255.37 L 229.0,254.88 L 229.49,254.39 L 229.49,253.91 L 230.47,252.93 L 230.47,252.44 L 230.96,251.95 L 230.96,251.46 L 231.45,250.98 L 231.45,250.49 L 231.93,250.0 L 231.93,249.51 L 232.42,249.02 L 232.42,248.54 L 232.91,248.05 L 232.91,247.56 L 233.4,247.07 L 233.4,246.58 L 234.38,245.61 L 234.38,245.12 L 234.86,244.63 L 234.86,244.14 L 235.35,243.65 L 235.35,243.16 L 235.84,242.68 L 235.84,242.19 L 236.33,241.7 L 236.33,241.21 L 236.82,240.72 L 236.82,240.23 L 237.3,239.75 L 237.3,239.26 L 238.28,238.28 L 238.28,237.79 L 238.77,237.3 L 238.77,236.82 L 239.26,236.33 L 239.26,235.84 L 239.75,235.35 L 239.75,234.86 L 240.23,234.38 L 240.23,233.89 L 240.72,233.4 L 240.72,232.91 L 241.21,232.42 L 241.21,231.93 L 241.7,231.45 L 241.7,230.96 L 242.19,230.47 L 242.19,229.98 L 242.68,229.49 L 242.68,229.0 L 243.16,228.52 L 243.16,228.03 L 245.12,226.07 L 246.09,226.07 L 246.58,226.56 L 246.58,227.05 L 247.07,227.54 L 247.07,278.32 L 248.05,279.3 L 249.51,279.3 L 250.0,279.79 L 251.46,279.79 L 251.95,280.27 L 253.42,280.27 L 253.91,280.76 L 255.37,280.76 L 255.86,281.25 L 256.84,281.25 L 257.32,281.74 L 258.3,281.74 L 258.79,282.23 L 259.77,282.23 L 260.25,282.71 L 260.74,282.71 L 261.23,283.2 L 262.21,283.2 L 262.7,283.69 L 263.18,283.69 L 263.67,284.18 L 264.16,284.18 L 264.65,284.67 L 265.14,284.67 L 265.62,285.16 L 266.11,285.16 L 266.6,285.64 L 267.09,285.64 L 267.58,286.13 L 268.55,286.13 L 269.53,287.11 L 271.48,287.11 L 271.97,286.62 L 271.97,194.82 L 272.46,194.34 L 272.46,191.41 L 272.95,190.92 L 272.95,189.45 L 273.44,188.96 L 273.44,187.99 L 273.93,187.5 L 273.93,187.01 L 274.41,186.52 L 274.41,186.04 L 274.9,185.55 L 274.9,185.06 L 275.39,184.57 L 275.39,184.08 L 276.86,182.62 L 276.86,182.13 L 281.74,177.25 L 282.23,177.25 L 283.2,176.27 L 283.69,176.27 L 284.67,175.29 L 285.16,175.29 L 285.64,174.8 L 286.13,174.8 L 286.62,174.32 L 287.11,174.32 L 287.6,173.83 L 288.57,173.83 L 289.06,173.34 L 290.04,173.34 L 290.53,172.85 L 292.48,172.85 L 292.97,172.36 L 296.88,172.36 L 297.36,171.88 L 297.85,171.88 L 298.34,172.36 L 303.71,172.36 L 304.2,172.85 L 306.15,172.85 L 306.64,173.34 L 307.62,173.34 L 308.11,173.83 L 309.08,173.83 L 309.57,174.32 L 310.06,174.32 L 310.55,174.8 L 311.04,174.8 L 311.52,175.29 L 312.01,175.29 L 312.5,175.78 L 312.99,175.78 L 314.94,177.73 L 315.43,177.73 L 316.41,178.71 L 316.41,179.2 L 318.36,181.15 L 318.36,181.64 L 319.34,182.62 L 319.34,183.11 L 319.82,183.59 L 319.82,184.08 L 320.31,184.57 L 320.31,185.06 L 320.8,185.55 L 320.8,186.52 L 321.29,187.01 L 321.29,187.99 L 321.78,188.48 L 321.78,189.94 L 322.27,190.43 L 322.27,192.87 L 322.75,193.36 L 322.75,283.69 L 322.27,284.18 L 322.27,289.06 L 321.78,289.55 L 321.78,292.48 L 321.29,292.97 L 321.29,294.92 L 320.8,295.41 L 320.8,296.88 L 320.31,297.36 L 320.31,298.83 L 319.82,299.32 L 319.82,300.29 L 319.34,300.78 L 319.34,301.76 L 318.85,302.25 L 318.85,303.22 L 318.36,303.71 L 318.36,304.2 L 317.87,304.69 L 317.87,305.18 L 317.38,305.66 L 317.38,306.15 L 316.89,306.64 L 316.89,307.62 L 315.92,308.59 L 315.92,309.08 L 315.43,309.57 L 315.43,310.06 L 314.45,311.04 L 314.45,311.52 L 312.99,312.99 L 312.99,313.48 L 308.11,318.36 L 307.62,318.36 L 306.64,319.34 L 306.15,319.34 L 305.18,320.31 L 304.69,320.31 L 304.2,320.8 L 303.71,320.8 L 303.22,321.29 L 302.73,321.29 L 302.25,321.78 L 301.27,321.78 L 300.78,322.27 L 299.8,322.27 L 299.32,322.75 L 298.34,322.75 L 297.85,323.24 L 295.41,323.24 L 294.92,323.73 L 285.16,323.73 L 284.67,323.24 L 282.71,323.24 L 282.23,322.75 L 280.76,322.75 L 280.27,322.27 L 279.3,322.27 L 278.81,321.78 L 278.32,321.78 L 277.83,321.29 L 277.34,321.29 L 276.86,320.8 L 276.37,320.8 L 275.88,320.31 L 275.39,320.31 L 274.9,319.82 L 274.41,319.82 L 273.44,318.85 L 272.95,318.85 L 268.55,314.45 L 268.55,313.96 L 267.58,312.99 L 267.58,312.5 L 267.09,312.01 L 267.09,311.52 L 266.6,311.04 L 266.6,310.55 L 266.11,310.06 L 266.11,309.08 L 265.62,308.59 L 265.62,306.64 L 265.14,306.15 L 265.14,303.22 L 264.65,302.73 L 264.65,299.32 L 264.16,298.83 L 264.16,296.88 L 263.67,296.39 L 263.67,294.92 L 263.18,294.43 L 263.18,293.95 L 260.74,291.5 L 260.25,291.5 L 259.77,291.02 L 259.28,291.02 L 258.79,290.53 L 257.81,290.53 L 257.32,290.04 L 256.35,290.04 L 255.86,289.55 L 253.91,289.55 L 253.42,289.06 L 249.02,289.06 L 248.54,289.55 L 247.07,289.55 L 246.58,290.04 L 246.09,290.04 L 245.61,290.53 L 244.63,290.53 L 243.65,291.5 L 243.16,291.5 L 242.19,292.48 L 241.7,292.48 L 239.26,294.92 L 239.26,295.41 L 238.28,296.39 L 238.28,296.88 L 237.79,297.36 L 237.79,297.85 L 237.3,298.34 L 237.3,299.32 L 236.82,299.8 L 236.82,301.27 L 236.33,301.76 L 236.33,304.69 L 235.84,305.18 L 235.84,309.08 L 236.33,309.57 L 236.33,312.5 L 236.82,312.99 L 236.82,314.45 L 237.3,314.94 L 237.3,315.92 L 237.79,316.41 L 237.79,317.38 L 238.28,317.87 L 238.28,318.36 L 238.77,318.85 L 238.77,319.34 L 239.26,319.82 L 239.26,320.31 L 239.75,320.8 L 239.75,321.29 L 240.23,321.78 L 240.23,322.27 L 240.72,322.75 L 240.72,323.24 L 241.7,324.22 L 241.7,324.71 L 242.19,325.2 L 242.19,325.68 L 243.16,326.66 L 243.16,327.15 L 244.14,328.12 L 244.14,328.61 L 246.09,330.57 L 246.09,331.05 L 252.44,337.4 L 252.93,337.4 L 254.39,338.87 L 254.88,338.87 L 255.86,339.84 L 256.35,339.84 L 257.32,340.82 L 257.81,340.82 L 258.79,341.8 L 259.28,341.8 L 259.77,342.29 L 260.25,342.29 L 260.74,342.77 L 261.23,342.77 L 261.72,343.26 L 262.21,343.26 L 262.7,343.75 L 263.18,343.75 L 263.67,344.24 L 264.16,344.24 L 264.65,344.73 L 265.14,344.73 L 265.62,345.21 L 266.6,345.21 L 267.09,345.7 L 267.58,345.7 L 268.07,346.19 L 269.04,346.19 L 269.53,346.68 L 270.51,346.68 L 271.0,347.17 L 271.97,347.17 L 272.46,347.66 L 273.93,347.66 L 274.41,348.14 L 275.88,348.14 L 276.37,348.63 L 278.32,348.63 L 278.81,349.12 L 281.25,349.12 L 281.74,349.61 L 288.57,349.61 L 289.06,350.1 L 289.55,349.61 L 290.04,349.61 L 290.53,350.1 L 291.02,349.61 L 296.88,349.61 L 297.36,349.12 L 300.29,349.12 L 300.78,348.63 L 302.73,348.63 L 303.22,348.14 L 304.69,348.14 L 305.18,347.66 L 306.64,347.66 L 307.13,347.17 L 308.11,347.17 L 308.59,346.68 L 309.57,346.68 L 310.06,346.19 L 311.04,346.19 L 311.52,345.7 L 312.5,345.7 L 312.99,345.21 L 313.48,345.21 L 313.96,344.73 L 314.45,344.73 L 314.94,344.24 L 315.43,344.24 L 315.92,343.75 L 316.89,343.75 L 317.38,343.26 L 317.87,343.26 L 318.85,342.29 L 319.34,342.29 L 319.82,341.8 L 320.31,341.8 L 320.8,341.31 L 321.29,341.31 L 322.27,340.33 L 322.75,340.33 L 323.73,339.36 L 324.22,339.36 L 325.68,337.89 L 326.17,337.89 L 328.12,335.94 L 328.61,335.94 L 335.45,329.1 L 335.45,328.61 L 336.91,327.15 L 336.91,326.66 L 338.38,325.2 L 338.38,324.71 L 339.36,323.73 L 339.36,323.24 L 339.84,322.75 L 339.84,322.27 L 340.82,321.29 L 340.82,320.8 L 341.31,320.31 L 341.31,319.82 L 341.8,319.34 L 341.8,318.85 L 342.29,318.36 L 342.29,317.87 L 342.77,317.38 L 342.77,316.89 L 343.26,316.41 L 343.26,315.92 L 343.75,315.43 L 343.75,314.45 L 344.24,313.96 L 344.24,313.48 L 344.73,312.99 L 344.73,312.01 L 345.21,311.52 L 345.21,310.55 L 345.7,310.06 L 345.7,309.57 L 346.19,309.08 L 346.19,308.11 L 346.68,307.62 L 346.68,306.15 L 347.17,305.66 L 347.17,304.69 L 347.66,304.2 L 347.66,302.25 L 348.14,301.76 L 348.14,300.29 L 348.63,299.8 L 348.63,297.36 L 349.12,296.88 L 349.12,294.43 L 349.61,293.95 L 349.61,290.53 L 350.1,290.04 L 350.1,284.18 L 350.59,283.69 L 350.59,191.41 L 350.1,190.92 L 350.1,187.99 L 349.61,187.5 L 349.61,185.55 L 349.12,185.06 L 349.12,183.59 L 348.63,183.11 L 348.63,181.64 L 348.14,181.15 L 348.14,180.18 L 347.66,179.69 L 347.66,179.2 L 347.17,178.71 L 347.17,177.73 L 346.68,177.25 L 346.68,176.76 L 346.19,176.27 L 346.19,175.29 L 345.7,174.8 L 345.7,174.32 L 345.21,173.83 L 345.21,173.34 L 344.24,172.36 L 344.24,171.88 L 343.75,171.39 L 343.75,170.9 L 342.77,169.92 L 342.77,169.43 L 341.8,168.46 L 341.8,167.97 L 339.84,166.02 L 339.84,165.53 L 334.96,160.64 L 334.47,160.64 L 332.52,158.69 L 332.03,158.69 L 331.05,157.71 L 330.57,157.71 L 329.59,156.74 L 329.1,156.74 L 328.61,156.25 L 328.12,156.25 L 327.15,155.27 L 326.66,155.27 L 326.17,154.79 L 325.68,154.79 L 325.2,154.3 L 324.71,154.3 L 324.22,153.81 L 323.73,153.81 L 323.24,153.32 L 322.27,153.32 L 321.78,152.83 L 321.29,152.83 L 320.8,152.34 L 319.82,152.34 L 319.34,151.86 L 318.36,151.86 L 317.87,151.37 L 316.89,151.37 L 316.41,150.88 L 315.43,150.88 L 314.94,150.39 L 313.48,150.39 L 312.99,149.9 L 311.52,149.9 L 311.04,149.41 L 309.08,149.41 L 308.59,148.93 L 305.66,148.93 L 305.18,148.44 Z" />
</svg>